Coordinates
version=1
nRows=16
nColumns=63
inDegrees=yes

Units are S.I. units (second, meters, Newtons, ...)
If the header above contains a line with 'inDegrees', this indicates whether rotational values are in degrees (yes) or radians (no).

endheader
time	pelvis_tilt	pelvis_list	pelvis_rotation	pelvis_tx	pelvis_ty	pelvis_tz	hip_flexion_r	hip_adduction_r	hip_rotation_r	knee_angle_r	knee_angle_r_beta	ankle_angle_r	subtalar_angle_r	mtp_angle_r	hip_flexion_l	hip_adduction_l	hip_rotation_l	knee_angle_l	knee_angle_l_beta	ankle_angle_l	subtalar_angle_l	mtp_angle_l	L5_S1_Flex_Ext	L5_S1_Lat_Bending	L5_S1_axial_rotation	L4_L5_Flex_Ext	L4_L5_Lat_Bending	L4_L5_axial_rotation	L3_L4_Flex_Ext	L3_L4_Lat_Bending	L3_L4_axial_rotation	L2_L3_Flex_Ext	L2_L3_Lat_Bending	L2_L3_axial_rotation	L1_L2_Flex_Ext	L1_L2_Lat_Bending	L1_L2_axial_rotation	L1_T12_Flex_Ext	L1_T12_Lat_Bending	L1_T12_axial_rotation	Abs_r3	Abs_r2	Abs_r1	Abs_t1	Abs_t2	neck_flexion	neck_bending	neck_rotation	arm_flex_r	arm_add_r	arm_rot_r	elbow_flex_r	pro_sup_r	wrist_flex_r	wrist_dev_r	arm_flex_l	arm_add_l	arm_rot_l	elbow_flex_l	pro_sup_l	wrist_flex_l	wrist_dev_l
0.000000	6.544316	-2.407088	94.356023	0.122881	0.812392	0.838133	13.594634	3.365383	-1.694603	18.195346	0.317569	35.141987	6.558499	0.000000	8.967036	-2.009539	16.486973	8.299095	0.144847	31.849041	-6.090480	0.000000	0.409694	0.576384	0.289453	0.760842	0.766591	0.307543	0.673085	1.401420	0.307543	0.468239	1.401420	0.253271	0.380441	1.175362	0.235180	0.234099	0.892819	0.217089	2.926400	6.520172	1.609848	0.000000	0.000000	27.987393	7.998757	16.700191	18.858976	-16.911472	58.915254	58.542278	72.800004	10.466142	19.628637	20.261384	-12.781780	58.809699	55.687218	90.917714	13.310383	25.523246
0.016949	6.717423	-2.093844	94.891165	0.122221	0.813436	0.836409	13.007941	3.628529	-0.982130	17.744052	0.309692	34.639277	4.958069	0.000000	8.337024	-2.213523	18.178919	7.748537	0.135237	31.491214	-6.884391	0.000000	0.396356	0.574770	0.244347	0.736073	0.764444	0.259619	0.651173	1.397496	0.259619	0.452995	1.397496	0.213804	0.368056	1.172071	0.198532	0.226478	0.890319	0.183261	2.831132	6.501914	1.358987	0.000000	0.000000	27.880083	7.391700	14.753212	18.312088	-16.914706	59.482224	57.846055	67.220607	9.217450	20.583548	20.423355	-12.461955	61.323964	54.664975	88.901334	11.379004	21.934937
0.033898	6.881495	-1.822556	95.345878	0.121651	0.814286	0.835053	12.501836	3.856598	-0.481414	17.345348	0.302733	34.233200	3.722986	0.000000	7.819083	-2.400685	19.607314	7.319179	0.127744	31.182581	-7.569282	0.000000	0.382358	0.577317	0.187224	0.710078	0.767831	0.198925	0.628176	1.403688	0.198925	0.436997	1.403688	0.163821	0.355058	1.177264	0.152119	0.218480	0.894264	0.140418	2.731147	6.530723	1.041283	0.000000	0.000000	27.771842	6.895795	13.235817	18.040789	-16.924330	60.365922	57.278577	61.869673	8.017412	21.377601	20.610115	-12.207977	63.479202	53.777610	87.573251	10.086942	19.018159
0.050847	7.036770	-1.591008	95.728796	0.121162	0.814960	0.834031	12.070207	4.051858	-0.176130	16.993675	0.296596	33.915445	2.823584	0.000000	7.405335	-2.571676	20.792166	6.999951	0.122172	30.921094	-8.150202	0.000000	0.368034	0.583500	0.119895	0.683475	0.776054	0.127388	0.604642	1.418721	0.127388	0.420626	1.418721	0.104908	0.341756	1.189872	0.097415	0.210294	0.903841	0.089921	2.628827	6.600663	0.666819	0.000000	0.000000	27.664610	6.502805	12.109227	18.012337	-16.939116	61.513730	56.828101	56.789785	6.877192	22.016121	20.809380	-12.014517	65.287274	53.017511	86.818910	9.350596	16.710236
0.067797	7.183488	-1.396986	96.048553	0.120745	0.815474	0.833312	11.706942	4.216577	-0.049951	16.683475	0.291182	33.677704	2.230196	0.000000	7.087896	-2.727148	21.753482	6.779786	0.118330	30.704708	-8.632203	0.000000	0.353715	0.592794	0.044174	0.656885	0.788415	0.046934	0.581119	1.441318	0.046934	0.404261	1.441318	0.038652	0.328460	1.208825	0.035891	0.202113	0.918237	0.033130	2.526554	6.705799	0.245680	0.000000	0.000000	27.560325	6.204488	11.334660	18.193988	-16.957840	62.873032	56.482887	52.023528	5.807954	22.504437	21.008870	-11.876247	66.760042	52.377068	86.523755	9.086367	14.948492
0.084746	7.321888	-1.238274	96.313780	0.120393	0.815844	0.832863	11.405931	4.353020	-0.086550	16.409189	0.286394	33.511666	1.913157	0.000000	6.858887	-2.867753	22.511270	6.647614	0.116023	30.531375	-9.020333	0.000000	0.339737	0.604674	-0.038127	0.630926	0.804216	-0.040510	0.558154	1.470204	-0.040510	0.388286	1.470204	-0.033361	0.315480	1.233051	-0.030978	0.194126	0.936640	-0.028595	2.426709	6.840192	-0.212051	0.000000	0.000000	27.460924	5.992606	10.873336	18.552997	-16.979277	64.391210	56.231193	47.613487	4.820863	22.847876	21.196300	-11.787839	67.909369	51.848671	86.573232	9.210657	13.670249
0.101695	7.452208	-1.112659	96.533113	0.120097	0.816088	0.832651	11.161061	4.463455	-0.269600	16.165258	0.282137	33.409022	1.842799	0.000000	6.710425	-2.994141	23.085537	6.592369	0.115059	30.399049	-9.319642	0.000000	0.326432	0.618616	-0.125194	0.606217	0.822759	-0.133018	0.536295	1.504103	-0.133018	0.373079	1.504103	-0.109544	0.303125	1.261482	-0.101720	0.186523	0.958236	-0.093895	2.331672	6.997907	-0.696289	0.000000	0.000000	27.368347	5.858918	10.686474	19.056623	-17.002199	66.015646	56.061277	43.602247	3.927082	23.051765	21.359389	-11.743965	68.747117	51.424710	86.852787	9.639865	12.812830
0.118644	7.574688	-1.017925	96.715184	0.119847	0.816220	0.832646	10.966221	4.550148	-0.582775	15.946125	0.278312	33.361461	1.989456	0.000000	6.634630	-3.106965	23.496290	6.602981	0.115244	30.305682	-9.535179	0.000000	0.314134	0.634095	-0.215213	0.583378	0.843346	-0.228664	0.516090	1.541738	-0.228664	0.359023	1.541738	-0.188312	0.291704	1.293046	-0.174861	0.179496	0.982213	-0.161410	2.243825	7.173007	-1.196953	0.000000	0.000000	27.284530	5.795184	10.735295	19.672120	-17.025383	67.693724	55.961398	40.032390	3.137776	23.121433	21.485854	-11.739296	69.285148	51.097573	87.247863	10.290393	12.313560
0.135593	7.689567	-0.951857	96.868626	0.119636	0.816260	0.832814	10.815300	4.615367	-1.009748	15.746229	0.274824	33.360673	2.323462	0.000000	6.623621	-3.206874	23.763538	6.668382	0.116385	30.249228	-9.671995	0.000000	0.303175	0.650586	-0.306373	0.563026	0.865279	-0.325522	0.498086	1.581834	-0.325522	0.346499	1.581834	-0.268077	0.281528	1.326674	-0.248928	0.173234	1.007757	-0.229780	2.165549	7.359556	-1.703956	0.000000	0.000000	27.211414	5.793165	10.981017	20.366746	-17.047601	69.372826	55.919814	36.946503	2.464109	23.062206	21.563414	-11.768504	69.535325	50.859652	87.643907	11.078640	12.109762
0.152542	7.797084	-0.912241	97.002074	0.119456	0.816221	0.833124	10.702185	4.661379	-1.534193	15.560012	0.271573	33.398349	2.815151	0.000000	6.669516	-3.294522	23.907287	6.777505	0.118290	30.227639	-9.735139	0.000000	0.293890	0.667564	-0.396860	0.545783	0.887860	-0.421664	0.482832	1.623115	-0.421664	0.335887	1.623115	-0.347253	0.272906	1.361296	-0.322449	0.167929	1.034056	-0.297645	2.099226	7.551616	-2.207217	0.000000	0.000000	27.150934	5.844620	11.384860	21.107757	-17.067630	71.000335	55.924784	34.387170	1.917245	22.879413	21.579784	-11.826261	69.509509	50.703334	87.926363	11.921008	12.138758
0.169492	7.897478	-0.896862	97.124160	0.119296	0.816122	0.833542	10.620765	4.690450	-2.139783	15.381916	0.268465	33.466179	3.434856	0.000000	6.764435	-3.370559	23.947545	6.919280	0.120764	30.238870	-9.729660	0.000000	0.286611	0.684504	-0.484861	0.532266	0.910391	-0.515165	0.470874	1.664304	-0.515165	0.327568	1.664304	-0.424253	0.266147	1.395842	-0.393949	0.163770	1.060297	-0.363646	2.047237	7.743252	-2.696650	0.000000	0.000000	27.105031	5.941311	11.908043	21.862408	-17.084242	72.523634	55.964565	32.396975	1.508348	22.578381	21.522684	-11.907238	69.219563	50.621010	87.980677	12.733897	12.337873
0.186441	8.000367	-0.914329	97.297712	0.119122	0.815995	0.834017	10.554304	4.706890	-2.886027	15.157874	0.264555	33.521378	4.231215	0.000000	6.935171	-3.445596	23.799125	7.088816	0.123723	30.332854	-9.489923	0.000000	0.283246	0.700492	-0.560357	0.526016	0.931654	-0.595380	0.465345	1.703176	-0.595380	0.323722	1.703176	-0.490313	0.263022	1.428443	-0.455290	0.161847	1.085062	-0.420268	2.023197	7.924104	-3.116540	0.000000	0.000000	27.098303	6.054615	12.402299	22.445374	-17.128736	73.560453	56.093954	31.201158	1.502138	22.275941	21.367562	-11.988346	68.671067	50.586028	87.436703	13.341892	12.978051
0.203390	8.097978	-0.953456	97.484607	0.118975	0.815860	0.834543	10.507592	4.718233	-3.650022	14.923563	0.260465	33.590112	5.022792	0.000000	7.142636	-3.507636	23.620754	7.271426	0.126910	30.449957	-9.223796	0.000000	0.283381	0.714567	-0.637126	0.526267	0.950374	-0.676946	0.465567	1.737397	-0.676946	0.323876	1.737397	-0.557485	0.263148	1.457144	-0.517665	0.161924	1.106864	-0.477844	2.024164	8.083321	-3.543502	0.000000	0.000000	27.115189	6.227060	12.976324	23.045229	-17.160757	74.478295	56.245868	31.067147	1.732550	21.831050	20.987161	-12.136992	67.658344	50.750399	86.118460	13.439930	13.601802
0.220339	8.188507	-1.003552	97.691783	0.118835	0.815732	0.835067	10.464710	4.724994	-4.409548	14.676057	0.256146	33.664455	5.779014	0.000000	7.361145	-3.555036	23.505232	7.448222	0.129996	30.569471	-9.030275	0.000000	0.286902	0.725756	-0.708877	0.532806	0.965255	-0.753182	0.471351	1.764603	-0.753182	0.327900	1.764603	-0.620267	0.266417	1.479961	-0.575963	0.163936	1.124196	-0.531658	2.049312	8.209895	-3.942561	0.000000	0.000000	27.148480	6.432653	13.518591	23.610179	-17.176190	75.241671	56.406976	31.794913	2.096403	21.233692	20.456401	-12.324872	66.409855	51.013651	83.874402	13.070505	13.873720
0.237288	8.268874	-1.063766	97.925707	0.118673	0.815606	0.835569	10.432372	4.722766	-5.149215	14.433917	0.251919	33.745039	6.477949	0.000000	7.585554	-3.585868	23.441592	7.614518	0.132898	30.702688	-8.863316	0.000000	0.293877	0.733643	-0.773266	0.545759	0.975746	-0.821596	0.482810	1.783780	-0.821596	0.335872	1.783780	-0.676608	0.272894	1.496045	-0.628279	0.167921	1.136413	-0.579950	2.099132	8.299119	-4.300676	0.000000	0.000000	27.195684	6.657353	13.988862	24.068922	-17.153214	75.737739	56.550017	33.126913	2.573157	20.544257	19.786592	-12.504448	64.937699	51.325035	80.781821	12.263182	13.760082
0.254237	8.335218	-1.136233	98.200380	0.118465	0.815472	0.835991	10.405796	4.706397	-5.856811	14.190332	0.247668	33.829570	7.101865	0.000000	7.802419	-3.602853	23.404024	7.741058	0.135107	30.858016	-8.635769	0.000000	0.305148	0.737942	-0.830747	0.566691	0.981464	-0.882669	0.501328	1.794233	-0.882669	0.348754	1.794233	-0.726904	0.283361	1.504812	-0.674982	0.174362	1.143073	-0.623060	2.179644	8.347753	-4.620367	0.000000	0.000000	27.249883	6.892240	14.407524	24.342101	-17.066097	75.839052	56.619149	35.059349	3.177685	19.686533	19.007978	-12.640516	63.311235	51.610935	76.955685	11.176617	13.237334
